<?xml version="1.0" encoding="utf-8"?>
<!-- Generator: Adobe Illustrator 15.0.0, SVG Export Plug-In . SVG Version: 6.00 Build 0)  -->
<!DOCTYPE svg PUBLIC "-//W3C//DTD SVG 1.1//EN" "http://www.w3.org/Graphics/SVG/1.1/DTD/svg11.dtd">
<svg version="1.1" id="Layer_1" xmlns="http://www.w3.org/2000/svg" xmlns:xlink="http://www.w3.org/1999/xlink" x="0px" y="0px"
	 width="652.869px" height="138.23px" viewBox="0 0 652.869 138.23" enable-background="new 0 0 652.869 138.23"
	 xml:space="preserve">
<g>
	<g>
		<g>
			<path fill="#5D6D36" d="M122.777,63.964H155v8.575h-22.684l-0.08,13.707h18.035v8.577h-18.035v25.248h-9.458V63.964z"/>
			<path fill="#5D6D36" d="M179.527,93.86c-0.589-1.067-1.322-1.989-2.204-2.765c-0.882-0.774-1.938-1.214-3.166-1.322
				c-2.352-0.268-4.583,0.199-6.693,1.402c-2.112,1.202-3.727,2.953-4.849,5.251v23.645h-9.619V80.796h9.619v2.885
				c1.389-0.8,2.965-1.562,4.729-2.283c1.763-0.722,3.713-1.136,5.852-1.243c1.815-0.052,3.459,0.12,4.929,0.521
				c1.469,0.401,2.805,0.961,4.007,1.683s2.311,1.592,3.327,2.606c1.015,1.014,1.976,2.137,2.885,3.365L179.527,93.86z"/>
			<path fill="#5D6D36" d="M226.417,115.021c-2.779,1.711-5.664,3.034-8.656,3.968c-2.993,0.936-5.918,1.47-8.777,1.603
				c-2.858,0.133-5.584-0.133-8.175-0.801c-2.592-0.668-4.877-1.776-6.854-3.326c-1.978-1.55-3.555-3.527-4.729-5.932
				c-1.177-2.405-1.791-5.263-1.844-8.576c-0.053-2.458,0.252-4.931,0.922-7.415c0.667-2.485,1.723-4.756,3.165-6.812
				c1.443-2.057,3.288-3.807,5.532-5.25s4.889-2.352,7.936-2.726c2.136-0.267,4.514-0.16,7.133,0.321
				c2.619,0.479,4.997,1.576,7.134,3.285c2.136,1.711,3.833,4.168,5.089,7.374c1.255,3.207,1.616,7.375,1.083,12.505l-28.454-0.08
				c0.159,1.924,1.001,3.595,2.524,5.009c1.523,1.417,3.487,2.365,5.891,2.846c2.406,0.48,5.13,0.401,8.176-0.24
				c3.046-0.642,6.172-2.084,9.378-4.328L226.417,115.021z M215.997,94.742c-0.214-2.084-1.069-3.659-2.565-4.729
				c-1.496-1.067-3.179-1.614-5.049-1.643c-1.872-0.026-3.715,0.481-5.53,1.523c-1.818,1.042-3.153,2.632-4.009,4.77L215.997,94.742
				z"/>
			<path fill="#5D6D36" d="M250.142,109.651c0.161-1.229-0.374-2.11-1.602-2.646c-1.231-0.533-2.765-1.001-4.609-1.402
				s-3.807-0.854-5.891-1.362s-3.941-1.323-5.571-2.445c-1.631-1.122-2.846-2.686-3.648-4.688c-0.801-2.004-0.829-4.716-0.08-8.137
				c0.481-2.029,1.403-3.753,2.765-5.169c1.364-1.416,2.952-2.485,4.77-3.207c1.817-0.722,3.78-1.082,5.891-1.082
				c2.11,0,4.168,0.416,6.171,1.243c2.004,0.829,3.875,2.071,5.611,3.727c1.736,1.658,3.167,3.795,4.289,6.413l-9.779,3.526
				c-0.482-1.604-1.243-2.885-2.285-3.848c-1.042-0.962-2.123-1.644-3.246-2.043c-1.123-0.401-2.178-0.508-3.166-0.322
				c-0.989,0.189-1.643,0.683-1.964,1.483c-0.695,1.552-0.829,2.806-0.4,3.768c0.427,0.962,1.201,1.737,2.324,2.324
				c1.123,0.589,2.51,1.069,4.167,1.443c1.655,0.374,3.378,0.762,5.17,1.162c1.79,0.4,3.54,0.854,5.25,1.363
				c1.71,0.508,3.179,1.216,4.409,2.123c1.229,0.909,2.125,2.084,2.686,3.527c0.561,1.442,0.573,3.259,0.041,5.45
				c-0.589,2.404-1.778,4.383-3.567,5.932c-1.791,1.55-3.875,2.673-6.252,3.367c-2.379,0.692-4.889,0.947-7.535,0.761
				c-2.645-0.188-5.104-0.829-7.374-1.924c-2.272-1.095-4.183-2.632-5.732-4.608c-1.55-1.977-2.404-4.409-2.564-7.295l7.936-1.603
				c0.48,2.191,1.415,3.861,2.806,5.01c1.388,1.148,2.845,1.87,4.367,2.164c1.524,0.294,2.927,0.174,4.208-0.36
				C249.021,111.763,249.822,110.881,250.142,109.651z"/>
			<path fill="#5D6D36" d="M293.345,120.071c0-1.709,0.027-3.619,0.081-5.73c0.053-2.111,0.04-4.249-0.041-6.412
				c-0.081-2.165-0.255-4.289-0.521-6.373c-0.269-2.084-0.709-3.954-1.323-5.611c-0.614-1.655-1.43-3.018-2.445-4.087
				c-1.014-1.068-2.297-1.683-3.846-1.845c-2.353-0.266-4.583,0.162-6.693,1.283c-2.111,1.122-3.728,2.833-4.849,5.131v23.645
				h-9.458l-0.16-56.429h9.619V83.36c1.389-0.802,3.006-1.603,4.849-2.404c1.843-0.802,3.833-1.255,5.972-1.362
				c4.008-0.054,7.294,0.854,9.858,2.725c2.566,1.872,4.569,4.568,6.012,8.096s2.377,7.802,2.806,12.825
				c0.426,5.023,0.507,10.635,0.24,16.832H293.345z"/>
		</g>
		<g>
			<path fill="#5D6D36" d="M332.341,90.338l20.599-0.32c0.373,5.559,0.08,10.367-0.881,14.429c-0.696,2.938-1.671,5.41-2.927,7.413
				c-1.256,2.005-2.672,3.62-4.247,4.85c-1.577,1.229-3.286,2.111-5.131,2.645c-1.843,0.535-3.701,0.803-5.57,0.803
				c-3.848-0.107-7.229-0.935-10.14-2.485c-2.913-1.549-5.384-3.74-7.414-6.573c-1.604-2.244-2.833-4.821-3.688-7.734
				c-0.855-2.911-1.362-5.972-1.522-9.178c-0.16-3.634,0.186-7.227,1.042-10.781c0.854-3.552,2.244-6.745,4.168-9.578
				c1.923-2.831,4.394-5.129,7.414-6.893c3.019-1.764,6.666-2.672,10.941-2.725c1.655-0.053,3.339,0.16,5.049,0.641
				c1.711,0.481,3.354,1.217,4.93,2.205c1.576,0.989,3.019,2.218,4.329,3.687c1.309,1.469,2.364,3.167,3.167,5.09l-8.016,3.848
				c-0.321-0.748-0.762-1.483-1.323-2.205s-1.229-1.375-2.005-1.963c-0.774-0.588-1.67-1.055-2.685-1.403
				c-1.016-0.348-2.191-0.494-3.526-0.441c-2.192,0.055-4.142,0.695-5.851,1.924c-1.711,1.229-3.141,2.806-4.289,4.729
				c-1.15,1.924-2.017,4.102-2.605,6.532c-0.589,2.432-0.801,4.876-0.641,7.334c0.16,2.245,0.602,4.437,1.323,6.573
				c0.721,2.138,1.696,4.021,2.925,5.65c1.229,1.631,2.646,2.899,4.248,3.808c1.604,0.908,3.367,1.23,5.291,0.962
				c0.961-0.106,1.95-0.413,2.965-0.923c1.015-0.507,1.937-1.254,2.766-2.244c0.827-0.987,1.522-2.229,2.084-3.726
				c0.562-1.497,0.868-3.288,0.922-5.372l-11.623,0.161L332.341,90.338z"/>
			<path fill="#5D6D36" d="M387.808,112.541c-1.872,2.084-4.008,3.715-6.414,4.89c-2.404,1.175-4.836,1.896-7.293,2.164
				c-2.459,0.268-4.85,0.08-7.175-0.562c-2.323-0.641-4.396-1.763-6.211-3.366c-1.817-1.604-3.286-3.674-4.409-6.212
				c-1.121-2.537-1.656-5.57-1.603-9.098c0-3.206,0.573-6.063,1.724-8.576c1.148-2.511,2.631-4.635,4.448-6.372
				c1.816-1.736,3.9-3.047,6.252-3.927c2.352-0.883,4.742-1.296,7.174-1.244c2.431,0.055,4.821,0.615,7.174,1.685
				c2.351,1.069,4.461,2.673,6.333,4.809v-6.572h9.858l0.16,39.916h-10.019V112.541z M387.808,96.35
				c-2.513-2.831-5.145-4.729-7.896-5.691c-2.753-0.961-5.291-1.188-7.614-0.681c-2.325,0.509-4.236,1.632-5.732,3.367
				c-1.496,1.736-2.244,3.887-2.244,6.451c0,2.353,0.642,4.463,1.924,6.333c1.283,1.87,2.992,3.126,5.13,3.767
				c2.137,0.642,4.621,0.455,7.454-0.561c2.832-1.014,5.824-3.232,8.979-6.652V96.35z"/>
			<path fill="#5D6D36" d="M427.322,93.865c-0.589-1.067-1.321-1.99-2.203-2.766c-0.882-0.774-1.938-1.214-3.167-1.322
				c-2.353-0.268-4.582,0.2-6.692,1.403c-2.112,1.202-3.727,2.952-4.85,5.25v23.645h-9.618V80.8h9.618v2.885
				c1.389-0.8,2.966-1.562,4.729-2.283s3.712-1.136,5.851-1.242c1.816-0.053,3.459,0.119,4.93,0.521
				c1.47,0.401,2.806,0.962,4.008,1.683c1.202,0.722,2.311,1.592,3.326,2.606c1.015,1.015,1.976,2.137,2.885,3.366L427.322,93.865z"
				/>
			<path fill="#5D6D36" d="M467.961,113.183c-2.084,2.244-4.476,3.941-7.174,5.089c-2.698,1.15-5.438,1.724-8.216,1.724
				c-2.779,0-5.237-0.494-7.374-1.482c-2.138-0.988-3.941-2.325-5.41-4.008c-1.471-1.683-2.605-3.606-3.407-5.771
				c-0.801-2.164-1.256-4.42-1.362-6.772c-0.107-2.404,0.16-4.796,0.802-7.174c0.642-2.377,1.684-4.542,3.126-6.493
				c1.442-1.95,3.286-3.606,5.53-4.969c2.245-1.363,4.89-2.257,7.936-2.686c1.656-0.212,3.273-0.16,4.85,0.16
				c1.575,0.321,3.046,0.801,4.408,1.443c1.362,0.642,2.577,1.362,3.646,2.163c1.068,0.803,1.95,1.577,2.646,2.325V63.968h10.18
				l0.16,56.107h-10.34V113.183z M468.041,98.754c-1.337-2.404-2.873-4.287-4.609-5.651c-1.736-1.362-3.514-2.27-5.329-2.725
				c-1.817-0.453-3.581-0.467-5.291-0.04c-1.71,0.429-3.206,1.203-4.488,2.325s-2.284,2.578-3.006,4.368
				c-0.722,1.791-0.976,3.807-0.762,6.051c0.107,1.283,0.562,2.485,1.363,3.608c0.802,1.121,1.815,2.057,3.046,2.805
				c1.229,0.75,2.631,1.257,4.208,1.523c1.575,0.268,3.218,0.16,4.93-0.321c1.709-0.48,3.406-1.362,5.09-2.645
				c1.683-1.283,3.272-3.099,4.769-5.451L468.041,98.754z"/>
			<path fill="#5D6D36" d="M519.9,115.025c-2.779,1.711-5.664,3.034-8.656,3.968c-2.993,0.936-5.919,1.47-8.777,1.604
				c-2.858,0.133-5.584-0.134-8.176-0.802s-4.876-1.775-6.854-3.326c-1.977-1.549-3.553-3.526-4.728-5.932
				c-1.177-2.405-1.791-5.263-1.845-8.576c-0.054-2.458,0.254-4.93,0.923-7.415c0.667-2.485,1.723-4.756,3.166-6.812
				c1.441-2.057,3.286-3.808,5.53-5.251c2.244-1.442,4.89-2.351,7.935-2.726c2.137-0.267,4.515-0.16,7.135,0.321
				c2.616,0.479,4.995,1.577,7.134,3.285c2.136,1.712,3.833,4.168,5.089,7.375c1.255,3.206,1.616,7.374,1.082,12.505l-28.455-0.081
				c0.16,1.924,1.003,3.595,2.525,5.01c1.522,1.416,3.487,2.364,5.892,2.846c2.404,0.48,5.13,0.4,8.176-0.241
				c3.046-0.641,6.172-2.084,9.377-4.328L519.9,115.025z M509.48,94.747c-0.214-2.084-1.069-3.66-2.564-4.729
				c-1.497-1.067-3.18-1.615-5.05-1.643c-1.872-0.026-3.715,0.48-5.531,1.522s-3.153,2.633-4.008,4.77L509.48,94.747z"/>
			<path fill="#5D6D36" d="M551.561,120.075c0-1.709,0.026-3.619,0.081-5.73c0.052-2.11,0.04-4.249-0.04-6.412
				c-0.08-2.165-0.255-4.289-0.521-6.373c-0.269-2.084-0.709-3.953-1.322-5.61c-0.615-1.655-1.43-3.019-2.444-4.088
				c-1.017-1.068-2.299-1.683-3.848-1.844c-2.353-0.267-4.583,0.161-6.693,1.282c-2.111,1.122-3.727,2.833-4.849,5.131v23.645
				h-9.619V80.8h9.619v2.564c1.389-0.801,3.006-1.602,4.849-2.404c1.845-0.801,3.834-1.254,5.972-1.362
				c4.008-0.053,7.294,0.855,9.858,2.725c2.565,1.872,4.569,4.569,6.013,8.097c1.442,3.526,2.377,7.802,2.805,12.825
				c0.427,5.022,0.508,10.634,0.24,16.831H551.561z"/>
			<path fill="#D8D8D8" d="M564.547,114.945c0-1.442,0.508-2.671,1.523-3.687c1.014-1.014,2.244-1.523,3.687-1.523
				s2.671,0.51,3.687,1.523c1.016,1.016,1.523,2.244,1.523,3.687c0,1.443-0.508,2.673-1.523,3.688
				c-1.016,1.017-2.244,1.523-3.687,1.523s-2.673-0.507-3.687-1.523C565.055,117.618,564.547,116.389,564.547,114.945z"/>
			<path fill="#D8D8D8" d="M608.391,92.422c-2.031-0.962-4.316-1.562-6.854-1.803c-2.539-0.241-4.902,0-7.093,0.722
				c-2.192,0.72-3.982,1.977-5.371,3.767c-1.391,1.791-1.978,4.235-1.764,7.334c0.107,1.817,0.829,3.421,2.165,4.81
				c1.334,1.391,3.006,2.419,5.009,3.086c2.005,0.669,4.208,0.882,6.612,0.641c2.406-0.239,4.756-1.107,7.055-2.604l2.885,8.897
				c-1.977,1.122-4.168,1.978-6.572,2.564c-2.404,0.588-4.85,0.828-7.334,0.722c-2.485-0.107-4.903-0.562-7.254-1.363
				c-2.353-0.801-4.437-2.029-6.252-3.687c-1.817-1.655-3.301-3.753-4.449-6.293c-1.148-2.536-1.75-5.597-1.804-9.177
				c-0.053-2.992,0.468-5.651,1.564-7.977c1.094-2.323,2.551-4.313,4.367-5.97c1.816-1.657,3.9-2.938,6.253-3.848
				c2.351-0.908,4.769-1.443,7.254-1.604c2.484-0.16,4.942,0.08,7.374,0.722c2.431,0.641,4.635,1.683,6.612,3.126L608.391,92.422z"
				/>
			<path fill="#D8D8D8" d="M642.616,120.075c0-1.709,0.026-3.619,0.08-5.73c0.052-2.11,0.041-4.249-0.04-6.412
				c-0.08-2.165-0.255-4.289-0.521-6.373c-0.268-2.084-0.708-3.953-1.321-5.61c-0.616-1.655-1.431-3.019-2.445-4.088
				c-1.017-1.068-2.298-1.683-3.847-1.844c-2.353-0.267-4.583,0.161-6.693,1.282c-2.112,1.122-3.727,2.833-4.85,5.131v23.645h-9.458
				l-0.16-56.428h9.618v19.717c1.389-0.801,3.006-1.602,4.85-2.404c1.844-0.801,3.833-1.254,5.972-1.362
				c4.007-0.053,7.294,0.855,9.858,2.725c2.565,1.872,4.568,4.569,6.012,8.097c1.443,3.526,2.377,7.802,2.806,12.825
				c0.427,5.022,0.507,10.634,0.239,16.831H642.616z"/>
		</g>
	</g>
	<g>
		<path fill="#5D6D36" d="M80.936,10.747c-25.7-2.538-29.373,19.142-29.898,25.195c1.408-2.698,3.354-5.065,5.49-7.15
			c2.151-2.087,4.512-3.922,7.022-5.502c2.506-1.588,5.138-2.978,7.942-3.941c-2.296,1.863-4.571,3.665-6.8,5.506
			c-2.213,1.854-4.385,3.728-6.417,5.719c-2.04,1.988-3.948,4.08-5.572,6.375c-0.073,0.111-0.145,0.218-0.217,0.327
			C79.922,33.455,80.936,10.747,80.936,10.747z"/>
		<path fill="#5D6D36" d="M27.355,0c27.118,6.56,23.135,29.987,21.52,36.344c-0.478-3.257-1.622-6.357-3.058-9.252
			c-1.445-2.896-3.202-5.606-5.2-8.111c-1.984-2.509-4.178-4.863-6.695-6.85c1.679,2.719,3.357,5.372,4.97,8.035
			c1.599,2.684,3.146,5.369,4.513,8.126c1.37,2.751,2.568,5.569,3.416,8.488c0.029,0.136,0.062,0.271,0.101,0.416
			C20.297,23.517,27.355,0,27.355,0z"/>
	</g>
	<g>
		<path fill="none" d="M24.845,61.215c-4.848,3.524-8.435,8.281-10.408,14.062c-5.948,17.423,1.036,28.82,1.707,29.852
			c0.709,0.944,1.563,1.946,2.529,2.975c6.238,6.668,17.256,14.562,25.75,17.112c2.124,0.64,4.371,0.961,6.677,0.961
			c7.65,0,16.074-3.69,23.25-9.626c4.357-3.612,8.258-8.045,11.243-12.995c-6.895-3.959-12.265-10.521-15.008-18.479
			c-2.733-7.931-2.475-16.512,0.56-23.92l0.18-0.41c0.149-0.38,0.319-0.76,0.506-1.138l0.143-0.321c0,0-0.09,0.185-0.12,0.247
			c-0.015,0.03-0.012,0.024,0,0c0.016-0.033,0.051-0.104,0.12-0.247c-6.999-3.293-15.038-5.077-22.992-5.077
			C39.357,54.21,31.065,56.697,24.845,61.215z"/>
		<path fill="#B6C791" d="M71.854,59.535C71.842,59.559,71.839,59.564,71.854,59.535L71.854,59.535z"/>
		<path fill="#B6C791" d="M82.33,51.153c-0.083-0.049-0.167-0.094-0.25-0.143c0.083,0.049,0.163,0.098,0.245,0.147L82.33,51.153z"/>
		<path fill="#B6C791" d="M71.974,59.288c-0.069,0.143-0.104,0.214-0.12,0.247C71.884,59.472,71.974,59.288,71.974,59.288z"/>
		<path fill="#B6C791" d="M80.216,49.953c0.236,0.127,0.461,0.256,0.69,0.384C80.677,50.208,80.448,50.079,80.216,49.953z"/>
		<path fill="#B6C791" d="M48.982,54.21c7.954,0,15.993,1.784,22.992,5.077c0,0,0.027-0.042,0.078-0.114
			c2.566-4.868,7.748-9.339,7.82-9.401c-19.597-10.471-46.196-10.551-63.111,2.406l8.083,9.036
			C31.065,56.697,39.357,54.21,48.982,54.21z"/>
		<path fill="#5D6D36" d="M16.143,105.129c-0.671-1.031-7.654-12.429-1.707-29.852c1.974-5.782,5.56-10.538,10.408-14.062
			l-8.083-9.036c-6.096,4.668-10.939,11.022-13.73,19.204c-8.387,24.568,3.292,40.735,3.292,40.735
			c0.955,1.297,2.096,2.645,3.37,4.017l8.979-8.031C17.707,107.075,16.852,106.073,16.143,105.129z"/>
		<path fill="#D8D8D8" d="M51.1,126.177c-2.307,0-4.554-0.321-6.677-0.961c-8.494-2.55-19.513-10.444-25.75-17.112l-8.979,8.031
			c7.654,8.258,20.474,17.386,31.264,20.625c14.195,4.264,29.529-1.128,41.454-11.198l-8.061-9.011
			C67.174,122.486,58.75,126.177,51.1,126.177z"/>
		<path fill="#E2EAC4" d="M80.082,49.878l-0.204-0.112c0,0-0.006,0.005-0.006,0.006c0.114,0.061,0.23,0.119,0.344,0.181
			C80.17,49.928,80.128,49.903,80.082,49.878z"/>
		<path fill="#E2EAC4" d="M80.906,50.337c0.394,0.221,0.786,0.443,1.173,0.672C81.699,50.784,81.307,50.561,80.906,50.337z"/>
		<path fill="#E2EAC4" d="M81.979,81.148c-3.397-9.852,0.263-20.192,8.188-24.321c0,0-0.587-0.538-1.641-1.376
			c-0.004-0.005-0.011-0.009-0.015-0.013c-0.451-0.359-0.988-0.773-1.597-1.224c-0.067-0.049-0.134-0.1-0.203-0.149
			c-0.995-0.728-2.175-1.543-3.501-2.374c0,0,0,0,0-0.001c-0.025-0.016-0.061-0.037-0.099-0.06
			c-0.252-0.157-0.523-0.315-0.785-0.472c-0.083-0.049-0.163-0.098-0.245-0.147c-0.387-0.229-0.779-0.452-1.173-0.672
			c-0.229-0.128-0.455-0.257-0.69-0.384c-0.114-0.062-0.23-0.12-0.344-0.181c-0.072,0.062-5.254,4.533-7.82,9.401
			c-0.05,0.072-0.078,0.114-0.078,0.114l-0.143,0.321c-0.187,0.378-0.357,0.758-0.506,1.138l-0.18,0.41
			c-3.035,7.408-3.293,15.99-0.56,23.92c2.743,7.957,8.113,14.52,15.008,18.479c-2.985,4.95-6.886,9.383-11.243,12.995l8.061,9.011
			c9.393-7.938,16.675-18.771,19.615-30.098C93.671,96.27,85.196,90.476,81.979,81.148z"/>
	</g>
</g>
</svg>
